<?xml version="1.0" encoding="UTF-8"?>
<!DOCTYPE svg PUBLIC "-//W3C//DTD SVG 1.1//EN" "http://www.w3.org/Graphics/SVG/1.1/DTD/svg11.dtd">
<svg xmlns="http://www.w3.org/2000/svg" version="1.1" width="438px" height="437px" style="shape-rendering:geometricPrecision; text-rendering:geometricPrecision; image-rendering:optimizeQuality; fill-rule:evenodd; clip-rule:evenodd" xmlns:xlink="http://www.w3.org/1999/xlink">
<g><path style="opacity:1" fill="#fef9e7" d="M -0.5,-0.5 C 145.5,-0.5 291.5,-0.5 437.5,-0.5C 437.5,145.167 437.5,290.833 437.5,436.5C 291.5,436.5 145.5,436.5 -0.5,436.5C -0.5,290.833 -0.5,145.167 -0.5,-0.5 Z"/></g>
<g><path style="opacity:1" fill="#5aa80f" d="M 202.5,47.5 C 285.863,46.4041 344.363,83.7374 378,159.5C 401.435,233.257 385.602,297.091 330.5,351C 277.898,394.051 219.231,404.718 154.5,383C 91.5883,355.41 55.0883,307.577 45,239.5C 40.0806,178.228 60.5806,127.394 106.5,87C 134.525,64.1537 166.525,50.9871 202.5,47.5 Z"/></g>
<g><path style="opacity:1" fill="#f9f7e0" d="M 199.5,61.5 C 275.32,58.3126 329.82,90.6459 363,158.5C 382.009,208.079 378.675,256.079 353,302.5C 323.681,349.594 281.181,375.428 225.5,380C 159.763,381.225 110.263,353.725 77,297.5C 45.6848,232.974 52.0182,172.641 96,116.5C 123.703,85.3982 158.203,67.0648 199.5,61.5 Z"/></g>
<g><path style="opacity:1" fill="#56a606" d="M 67.5,232.5 C 67.1451,218.765 67.8117,205.098 69.5,191.5C 83.5589,131.271 120.226,92.1047 179.5,74C 243.459,61.5374 295.959,80.3708 337,130.5C 369.042,177.732 374.709,228.065 354,281.5C 320.95,346.784 267.784,376.284 194.5,370C 131.976,357.812 91.1428,321.312 72,260.5C 69.3354,251.347 67.8354,242.014 67.5,232.5 Z"/></g>
<g><path style="opacity:1" fill="#cf3906" d="M 167.5,99.5 C 176.64,105.147 181.973,113.314 183.5,124C 181.854,134.142 176.521,141.642 167.5,146.5C 167.167,146.167 166.833,145.833 166.5,145.5C 174.257,134.967 176.424,123.3 173,110.5C 171.14,106.78 169.307,103.114 167.5,99.5 Z"/></g>
<g><path style="opacity:1" fill="#d23606" d="M 152.5,147.5 C 149.492,153.609 148.826,159.942 150.5,166.5C 151.385,172.274 153.385,177.608 156.5,182.5C 148.468,180.311 142.968,174.977 140,166.5C 138.188,157.804 140.188,150.137 146,143.5C 151.032,138.133 156.365,133.133 162,128.5C 158.368,134.431 155.201,140.764 152.5,147.5 Z"/></g>
<g><path style="opacity:1" fill="#a36004" d="M 213.5,145.5 C 213.5,147.167 213.5,148.833 213.5,150.5C 205.5,150.5 197.5,150.5 189.5,150.5C 196.982,149.508 204.648,149.175 212.5,149.5C 212.232,147.901 212.566,146.568 213.5,145.5 Z"/></g>
<g><path style="opacity:1" fill="#d53206" d="M 189.5,150.5 C 197.5,150.5 205.5,150.5 213.5,150.5C 213.5,148.833 213.5,147.167 213.5,145.5C 213.336,142.813 213.503,140.146 214,137.5C 214.388,136.572 215.055,135.905 216,135.5C 224.338,137.775 232.838,138.941 241.5,139C 242.059,139.725 242.392,140.558 242.5,141.5C 241.646,145.812 240.979,150.146 240.5,154.5C 253.74,157.079 266.073,161.912 277.5,169C 284.471,174.107 287.804,180.94 287.5,189.5C 244.101,183.967 200.768,177.967 157.5,171.5C 157.46,168.575 158.293,165.909 160,163.5C 168.184,155.491 178.017,151.158 189.5,150.5 Z"/></g>
<g><path style="opacity:1" fill="#5aa203" d="M 216.5,141.5 C 223.812,142.385 231.145,143.052 238.5,143.5C 237.841,146.455 237.508,149.455 237.5,152.5C 230.751,152.491 224.084,151.824 217.5,150.5C 216.516,147.572 216.183,144.572 216.5,141.5 Z"/></g>
<g><path style="opacity:1" fill="#8c7304" d="M 193.5,154.5 C 199.319,153.347 205.319,153.181 211.5,154C 208.832,154.567 206.166,155.067 203.5,155.5C 200.375,154.521 197.042,154.187 193.5,154.5 Z"/></g>
<g><path style="opacity:1" fill="#5f9f03" d="M 193.5,154.5 C 197.042,154.187 200.375,154.521 203.5,155.5C 194.924,156.955 187.591,160.788 181.5,167C 162.273,167.326 161.94,163.993 180.5,157C 184.632,155.1 188.966,154.267 193.5,154.5 Z"/></g>
<g><path style="opacity:1" fill="#9c6704" d="M 152.5,147.5 C 150.899,153.711 150.232,160.044 150.5,166.5C 148.826,159.942 149.492,153.609 152.5,147.5 Z"/></g>
<g><path style="opacity:1" fill="#fbf8e2" d="M 329.5,178.5 C 332.5,178.5 335.5,178.5 338.5,178.5C 339.717,187.841 337.884,196.508 333,204.5C 326.672,211.775 318.839,214.108 309.5,211.5C 315.099,202.83 321.766,194.997 329.5,188C 321.474,193.359 314.641,200.192 309,208.5C 306.067,198.424 308.9,190.257 317.5,184C 321.481,181.838 325.481,180.005 329.5,178.5 Z"/></g>
<g><path style="opacity:1" fill="#f0f2d4" d="M 195.5,193.5 C 196.833,193.5 198.167,193.5 199.5,193.5C 198.173,200.112 197.673,206.778 198,213.5C 202.625,209.354 206.959,209.687 211,214.5C 213.174,228.989 207.007,235.823 192.5,235C 191.884,233.6 191.551,232.1 191.5,230.5C 193.21,218.199 194.543,205.866 195.5,193.5 Z"/></g>
<g><path style="opacity:1" fill="#f3f4d8" d="M 148.5,193.5 C 153.951,192.779 158.785,194.112 163,197.5C 163.483,198.448 163.649,199.448 163.5,200.5C 160.336,198.559 156.836,197.225 153,196.5C 146.159,197.65 144.159,201.317 147,207.5C 151.3,210.798 155.3,214.465 159,218.5C 162.107,230.735 157.274,236.235 144.5,235C 139.265,233.642 137.265,230.475 138.5,225.5C 140.288,227.791 142.288,229.957 144.5,232C 153.263,233.725 157.43,230.225 157,221.5C 151.667,217.5 147,212.833 143,207.5C 142.333,204.5 142.333,201.5 143,198.5C 144.812,196.7 146.645,195.033 148.5,193.5 Z"/></g>
<g><path style="opacity:1" fill="#eff2d2" d="M 173.5,210.5 C 178.169,209.7 182.003,211.033 185,214.5C 184.634,221.515 183.8,228.515 182.5,235.5C 181.029,234.619 180.196,233.286 180,231.5C 171.153,238.361 166.819,236.361 167,225.5C 170.967,221.464 175.8,219.464 181.5,219.5C 181.714,217.856 181.38,216.356 180.5,215C 176.797,214.421 173.131,214.588 169.5,215.5C 169.281,214.325 169.614,213.325 170.5,212.5C 171.739,212.058 172.739,211.391 173.5,210.5 Z"/></g>
<g><path style="opacity:1" fill="#edf1cf" d="M 245.5,210.5 C 246.5,210.5 247.5,210.5 248.5,210.5C 248.343,211.873 248.51,213.207 249,214.5C 251.141,211.679 253.975,210.346 257.5,210.5C 257.567,213.766 255.901,215.266 252.5,215C 251.333,216.167 250.167,217.333 249,218.5C 247.363,223.714 246.363,229.047 246,234.5C 244.989,235.337 243.822,235.67 242.5,235.5C 243.381,227.113 244.381,218.779 245.5,210.5 Z"/></g>
<g><path style="opacity:1" fill="#f2f3d6" d="M 269.5,210.5 C 275.873,209.729 278.706,212.396 278,218.5C 274.254,223.123 269.421,225.123 263.5,224.5C 264.238,232.646 268.238,234.646 275.5,230.5C 275.833,231 276.167,231.5 276.5,232C 271.192,236.799 266.025,236.632 261,231.5C 257.763,221.982 260.596,214.982 269.5,210.5 Z"/></g>
<g><path style="opacity:1" fill="#5faa18" d="M 200.5,214.5 C 206.82,214.32 209.32,217.32 208,223.5C 206.189,229.815 202.023,232.815 195.5,232.5C 194.322,225.597 195.989,219.597 200.5,214.5 Z"/></g>
<g><path style="opacity:1" fill="#6ab029" d="M 270.5,213.5 C 274.071,213.408 275.238,215.074 274,218.5C 271.005,221.11 267.505,222.443 263.5,222.5C 263.986,218.019 266.319,215.019 270.5,213.5 Z"/></g>
<g><path style="opacity:1" fill="#61ab1a" d="M 173.5,223.5 C 175.833,223.5 178.167,223.5 180.5,223.5C 179.721,229.474 176.554,232.14 171,231.5C 170.018,228.225 170.851,225.559 173.5,223.5 Z"/></g>
<g><path style="opacity:1" fill="#f0f2d3" d="M 286.5,210.5 C 289.798,210.016 292.464,211.016 294.5,213.5C 291.914,214.48 289.247,214.813 286.5,214.5C 286.34,216.199 286.506,217.866 287,219.5C 290.316,222.135 292.816,225.301 294.5,229C 291.92,235.767 287.42,237.267 281,233.5C 280.251,232.365 280.417,231.365 281.5,230.5C 284.128,232.633 286.961,232.966 290,231.5C 290.667,229.833 290.667,228.167 290,226.5C 281.812,222.388 280.646,217.055 286.5,210.5 Z"/></g>
<g><path style="opacity:1" fill="#99c75f" d="M 69.5,191.5 C 67.8117,205.098 67.1451,218.765 67.5,232.5C 66.3417,222.675 66.1751,212.675 67,202.5C 67.4188,198.608 68.2521,194.942 69.5,191.5 Z"/></g>
<g><path style="opacity:1" fill="#f1f3d5" d="M 225.5,210.5 C 233.343,210.01 237.343,213.677 237.5,221.5C 237.41,229.586 233.41,234.252 225.5,235.5C 219.312,234.338 216.312,230.505 216.5,224C 216.661,217.489 219.661,212.989 225.5,210.5 Z"/></g>
<g><path style="opacity:1" fill="#5faa17" d="M 226.5,213.5 C 231.492,213.825 234.158,216.492 234.5,221.5C 234.473,227.262 231.807,230.929 226.5,232.5C 221.876,231.869 219.876,229.203 220.5,224.5C 220.175,219.478 222.175,215.812 226.5,213.5 Z"/></g>
<g><path style="opacity:1" fill="#f8f6de" d="M 127.5,259.5 C 127.664,262.187 127.497,264.854 127,267.5C 123.833,263.667 120.667,259.833 117.5,256C 116.833,255.333 116.167,255.333 115.5,256C 119.032,260.36 122.699,264.527 126.5,268.5C 116.134,272.034 109.634,268.034 107,256.5C 106.502,253.518 106.335,250.518 106.5,247.5C 116.429,246.674 123.429,250.674 127.5,259.5 Z"/></g>
<g><path style="opacity:1" fill="#cfe2a7" d="M 200.5,253.5 C 200.834,250.725 202.167,250.059 204.5,251.5C 203.234,252.362 201.901,253.029 200.5,253.5 Z"/></g>
<g><path style="opacity:1" fill="#d6e6b1" d="M 254.5,250.5 C 257.022,250.128 259.022,250.961 260.5,253C 258.473,252.502 256.473,252.669 254.5,253.5C 256.796,254.819 258.796,256.486 260.5,258.5C 260.288,260.888 258.955,261.888 256.5,261.5C 253.524,261.87 252.524,260.87 253.5,258.5C 254.85,259.95 256.516,260.617 258.5,260.5C 258.5,259.5 258.5,258.5 258.5,257.5C 253.929,257.082 252.595,254.749 254.5,250.5 Z"/></g>
<g><path style="opacity:1" fill="#edf1cf" d="M 200.5,253.5 C 200.067,256.166 199.567,258.832 199,261.5C 198.333,257.833 198.333,254.167 199,250.5C 199.232,251.737 199.732,252.737 200.5,253.5 Z"/></g>
<g><path style="opacity:1" fill="#e0eabd" d="M 218.5,250.5 C 220.877,250.784 223.044,250.784 225,250.5C 225.667,254.167 225.667,257.833 225,261.5C 224.667,260.833 224.333,260.167 224,259.5C 221.667,262.167 219.333,262.167 217,259.5C 216.207,256.259 216.707,253.259 218.5,250.5 Z"/></g>
<g><path style="opacity:1" fill="#60ab1a" d="M 219.5,252.5 C 224.747,252.64 225.747,254.806 222.5,259C 221.207,259.49 219.873,259.657 218.5,259.5C 218.298,257.05 218.631,254.717 219.5,252.5 Z"/></g>
<g><path style="opacity:1" fill="#dde9ba" d="M 176.5,246.5 C 178.857,246.337 181.19,246.503 183.5,247C 184.762,249.495 184.429,249.828 182.5,248C 175.676,247.506 173.176,250.672 175,257.5C 177.553,259.729 180.386,260.062 183.5,258.5C 184.604,259.631 184.271,260.465 182.5,261C 174.891,261.72 171.725,258.22 173,250.5C 174.376,249.295 175.542,247.962 176.5,246.5 Z"/></g>
<g><path style="opacity:1" fill="#e2ebc0" d="M 231.5,253.5 C 231.048,256.203 230.381,258.87 229.5,261.5C 228.167,257.833 228.167,254.167 229.5,250.5C 230.176,251.602 230.842,252.602 231.5,253.5 Z"/></g>
<g><path style="opacity:1" fill="#dae8b7" d="M 231.5,253.5 C 232.969,249.932 235.136,249.598 238,252.5C 238.821,255.554 238.655,258.554 237.5,261.5C 236.516,258.572 236.183,255.572 236.5,252.5C 234.708,252.366 233.042,252.699 231.5,253.5 Z"/></g>
<g><path style="opacity:1" fill="#d7e6b2" d="M 189.5,250.5 C 193.833,250.167 195.833,252.167 195.5,256.5C 193.167,256.5 190.833,256.5 188.5,256.5C 188.5,257.5 188.5,258.5 188.5,259.5C 191.114,259.295 193.448,259.295 195.5,259.5C 192.748,262.134 189.915,262.134 187,259.5C 185.93,255.858 186.764,252.858 189.5,250.5 Z"/></g>
<g><path style="opacity:1" fill="#72b42f" d="M 189.5,252.5 C 191.665,252.116 193.332,252.783 194.5,254.5C 192.5,255.833 190.5,255.833 188.5,254.5C 188.863,253.817 189.196,253.15 189.5,252.5 Z"/></g>
<g><path style="opacity:1" fill="#dce8b8" d="M 208.5,250.5 C 210.977,250.051 212.977,250.717 214.5,252.5C 212.657,252.755 210.657,252.922 208.5,253C 206.216,258.547 207.882,260.381 213.5,258.5C 214.711,259.274 214.711,260.107 213.5,261C 207.333,262.167 204.833,259.667 206,253.5C 207.045,252.627 207.878,251.627 208.5,250.5 Z"/></g>
<g><path style="opacity:1" fill="#d0e2a9" d="M 243.5,250.5 C 249.499,250.002 251.666,252.669 250,258.5C 248.18,261.203 245.68,262.036 242.5,261C 239.64,257.151 239.973,253.651 243.5,250.5 Z"/></g>
<g><path style="opacity:1" fill="#5eaa13" d="M 243.5,252.5 C 248.328,252.385 249.661,254.552 247.5,259C 242.57,259.427 241.237,257.26 243.5,252.5 Z"/></g>
<g><path style="opacity:1" fill="#98c75e" d="M 127.5,259.5 C 128.268,258.737 128.768,257.737 129,256.5C 129.592,259.694 129.426,262.861 128.5,266C 128.316,267.376 127.649,268.209 126.5,268.5C 122.699,264.527 119.032,260.36 115.5,256C 116.167,255.333 116.833,255.333 117.5,256C 120.667,259.833 123.833,263.667 127,267.5C 127.497,264.854 127.664,262.187 127.5,259.5 Z"/></g>
<g><path style="opacity:1" fill="#b7a60a" d="M 148.5,274.5 C 196.664,273.501 244.997,273.168 293.5,273.5C 293.5,276.167 293.5,278.833 293.5,281.5C 291.167,281.5 288.833,281.5 286.5,281.5C 288.265,280.539 290.265,280.205 292.5,280.5C 292.5,278.5 292.5,276.5 292.5,274.5C 244.5,274.5 196.5,274.5 148.5,274.5 Z"/></g>
<g><path style="opacity:1" fill="#d8a60e" d="M 148.5,274.5 C 196.5,274.5 244.5,274.5 292.5,274.5C 292.5,276.5 292.5,278.5 292.5,280.5C 290.265,280.205 288.265,280.539 286.5,281.5C 286.334,286.179 286.501,290.845 287,295.5C 289.018,293.65 290.851,291.65 292.5,289.5C 300.138,288.503 307.804,288.169 315.5,288.5C 315.5,293.167 315.5,297.833 315.5,302.5C 307.58,302.185 299.747,302.518 292,303.5C 290.71,305.792 289.043,307.792 287,309.5C 286.667,317.5 286.333,325.5 286,333.5C 284.558,337.275 282.058,340.108 278.5,342C 239.833,342.667 201.167,342.667 162.5,342C 159.598,339.76 157.431,336.927 156,333.5C 155.667,325.833 155.333,318.167 155,310.5C 153.207,307.705 151.04,305.205 148.5,303C 141.174,302.5 133.841,302.334 126.5,302.5C 126.5,297.833 126.5,293.167 126.5,288.5C 133.841,288.334 141.174,288.5 148.5,289C 151.04,291.205 153.207,293.705 155,296.5C 155.499,291.177 155.666,285.844 155.5,280.5C 153.167,280.5 150.833,280.5 148.5,280.5C 148.5,278.5 148.5,276.5 148.5,274.5 Z"/></g>
<g><path style="opacity:1" fill="#57a603" d="M 162.5,288.5 C 167.5,288.5 172.5,288.5 177.5,288.5C 177.5,303.833 177.5,319.167 177.5,334.5C 172.5,334.5 167.5,334.5 162.5,334.5C 162.5,319.167 162.5,303.833 162.5,288.5 Z"/></g>
<g><path style="opacity:1" fill="#fcf4d8" d="M 242.5,320.5 C 244.471,322.152 246.804,323.319 249.5,324C 248.072,325.916 247.072,328.083 246.5,330.5C 244.833,329.167 243.167,329.167 241.5,330.5C 240.795,328.328 239.795,326.328 238.5,324.5C 240.769,323.995 242.103,322.662 242.5,320.5 Z"/></g>
<g><path style="opacity:1" fill="#fcf3d8" d="M 216.5,320.5 C 218.216,322.208 220.216,323.542 222.5,324.5C 221.205,326.328 220.205,328.328 219.5,330.5C 217.833,329.167 216.167,329.167 214.5,330.5C 213.928,328.083 212.928,325.916 211.5,324C 213.881,323.777 215.547,322.61 216.5,320.5 Z"/></g>
<g><path style="opacity:1" fill="#fdf5db" d="M 256.5,320.5 C 258.216,322.208 260.216,323.542 262.5,324.5C 261.066,326.22 260.233,328.22 260,330.5C 258.204,329.233 256.371,329.233 254.5,330.5C 253.928,328.083 252.928,325.916 251.5,324C 253.936,323.794 255.602,322.627 256.5,320.5 Z"/></g>
<g><path style="opacity:1" fill="#fdf6de" d="M 269.5,320.5 C 271.471,322.152 273.804,323.319 276.5,324C 274.232,325.558 273.066,327.724 273,330.5C 271.333,329.167 269.667,329.167 268,330.5C 267.767,328.22 266.934,326.22 265.5,324.5C 267.769,323.995 269.103,322.662 269.5,320.5 Z"/></g>
<g><path style="opacity:1" fill="#fdf6de" d="M 229.5,320.5 C 231.175,322.149 233.175,323.482 235.5,324.5C 234.066,326.22 233.233,328.22 233,330.5C 231.333,329.167 229.667,329.167 228,330.5C 227.767,328.22 226.934,326.22 225.5,324.5C 227.769,323.995 229.103,322.662 229.5,320.5 Z"/></g>
</svg>
